<svg id="Слой_1" data-name="Слой 1" xmlns="http://www.w3.org/2000/svg" viewBox="0 0 337.99 315.34"><defs><style>.cls-1{fill:none;stroke:#324c5e;stroke-linecap:round;stroke-linejoin:round;stroke-width:14px;}</style></defs><title>24_7_preorder</title><path class="cls-1" d="M117.29,297.61A147.71,147.71,0,1,1,302.39,154.7M239.2,73.53l-71.06,71.06m-27.57,3.88-55-31.74M154.69,138a16.67,16.67,0,1,0,16.67,16.67A16.68,16.68,0,0,0,154.69,138Zm0-95.52V52.89M42.5,154.7H52.89M331,115.8l-25.38,53.34L269,122.8m23.09,185.54V197.08l-54.38,78.45,76.47-1.13m-89.41,33.93H155l41.8-41.8m0,0c29.09-25.94,20.83-52.41,2.81-62.29-27.8-15.25-48.35,14.55-45.28,34.39"/></svg>