<svg id="Слой_1" data-name="Слой 1" xmlns="http://www.w3.org/2000/svg" viewBox="0 0 335.89 329.35"><defs><style>.cls-1{fill:none;stroke:#324c5e;stroke-linecap:round;stroke-linejoin:round;stroke-width:11px;}</style></defs><title>burger2</title><path class="cls-1" d="M203.59,40.42c3.42-1.58,7.89,7.79,9.35,11.48s1.24,4.28-2.17,5.85-4,1.34-5.43-2.35-5.17-13.41-1.75-15ZM159.85,51.3c-2.94-2.46-9,5.76-11.29,8.93s-2.2,3.8.73,6.26,3.52,2.38,5.8-.79,7.69-11.94,4.75-14.39Zm-39.94-5.65c1.22-3.79-7.94-7.37-11.45-8.68s-4-1-5.26,2.76-1,4.36,2.55,5.67,12.94,4,14.16.25Zm15,116.92,93.52,63.7,58.24-62.85m28.46,82.67H20.77c-7.93,0-14.41,7-14.41,15.55v10.29c0,28.56,21.65,51.93,48.12,51.93H281.41c26.47,0,48.12-23.37,48.12-51.93V261.63c0-8.56-6.48-15.55-14.41-15.55Zm-20.74-1.27c19.33,0,35.15-19.87,35.15-40.73v-1.9c0-20.87-15.82-40.74-35.15-40.74H41.51c-19.34,0-35.16,19.87-35.16,40.74v1.9c0,20.86,15.82,40.74,35.16,40.74M315.12,107.26c7.93,0,14.41-7,14.41-15.55V78.61c0-41.26-80.8-73.11-161.59-73.11S6.36,37.33,6.36,78.61V91.7c0,8.56,6.48,15.55,14.41,15.55ZM22.85,109.58,5.5,149.88c13.54,0,27.07-22.38,40.61-22.38s27.07,22.38,40.61,22.38,27.07-22.38,40.61-22.38,27.07,22.38,40.61,22.38,27.07-22.38,40.61-22.38,27.07,22.38,40.61,22.38,27.07-22.38,40.61-22.38,27.07,22.38,40.61,22.38L313,109.58"/></svg>