<svg id="Слой_1" data-name="Слой 1" xmlns="http://www.w3.org/2000/svg" viewBox="0 0 263.56 259.14"><defs><style>.cls-1{fill:none;stroke:#324c5e;stroke-linecap:round;stroke-linejoin:round;stroke-width:9px;}</style></defs><title>delivery2</title><path class="cls-1" d="M106.89,199.07c2.4,2.85,6.46,7.93,18.42,14.55-29.31-1.64-60-17.43-89-26.25-5.47-1.66-9.62-9.17-9.6-15.34l-.13-13.76c0-4.32,3.54-9.8,7.53-10.1l66.44-.17c65.4-.17-19.92,19.88,6.37,51.08Z"/><line class="cls-1" x1="125.32" y1="213.62" x2="168.37" y2="214.11"/><path class="cls-1" d="M168.37,214.11c5.57,0,12.23-2,15.5-7.11"/><path class="cls-1" d="M183.88,207c5.66-8.89,11.37-16.15,18.74-21,14.41-9.52,41.3-9.16,56.45,7.24"/><path class="cls-1" d="M218.39,178.74c3.5-31.33-3.51-57.73-8.76-69.78-7-16-13.8-31.67-20.68-47.5-3-6.87-36.39,3.92-36.09,12.16"/><path class="cls-1" d="M225.21,75.77a23.23,23.23,0,0,1,5.12.56l-3,24.95c-.69.06-1.4.09-2.11.09-9.6,0-17.38-5.73-17.38-12.8s7.78-12.8,17.38-12.8Z"/><path class="cls-1" d="M226.87,215.87a10.75,10.75,0,1,1-10.75,10.75,10.75,10.75,0,0,1,10.75-10.75Z"/><path class="cls-1" d="M226.87,198.6a28,28,0,1,1-28,28,28,28,0,0,1,28-28Z"/><path class="cls-1" d="M59.62,215.87a10.75,10.75,0,1,1-10.75,10.75,10.75,10.75,0,0,1,10.75-10.75Z"/><path class="cls-1" d="M59.62,198.6a28,28,0,1,1-28,28,28,28,0,0,1,28-28Z"/><polyline class="cls-1" points="42.51 148.09 4.5 148.09 4.5 122.15 112.78 122.15 112.78 148.09"/><line class="cls-1" x1="61.71" y1="34.2" x2="61.71" y2="148.1"/><path class="cls-1" d="M62.95,31.1c-26.73-61.92-79.77,4.24,0,0h0c62.22-1.64,23-45.51,2.22-7.19-.64,1.18-1.75,5.83-2.22,7.19Z"/><polyline class="cls-1" points="20.33 120.95 20.33 95.01 128.6 95.01 129.45 122.15 112.78 122.15"/><polyline class="cls-1" points="20.33 95.01 4.98 95.01 4.5 67.88 112.78 67.88 112.78 93.82"/><polyline class="cls-1" points="10.4 66.68 10.4 40.74 118.68 40.74 118.68 68.75 111.21 68.75"/></svg>