<svg id="Слой_1" data-name="Слой 1" xmlns="http://www.w3.org/2000/svg" viewBox="0 0 338.1 344.9"><defs><style>.cls-1{fill:none;stroke:#324c5e;stroke-linecap:round;stroke-linejoin:round;stroke-width:11px;}</style></defs><title>french_fries2</title><path class="cls-1" d="M153.42,179.61,152,21h36.63l-1.35,158.49M244,91.23l9.31-40.69-36.17-5.06L194.67,179.12M301.85,149,332.6,86.86,304.54,68.69l-48.83,98.66m2.22,1.81,3.14-71.75L227.31,93.8l-3,82.26m-72.62,3.49L114,40,81.18,50.24,116,176.37M83.17,170,36.54,74.77l-31,15,26.23,54.88m60.9-98.93-.38-28.61H55.76L79.43,168.94M233.25,47.5l9.53-35.8L206.42,5.5,188.58,80.86M23.28,138.71,70.83,339.4c59.44-19.29,137.07-19.29,196.51,0l47.55-200.69h-6.26c-11.51,23.35-69.6,41.1-139.54,41.1s-128-17.76-139.54-41.1Z"/></svg>