<svg id="OBJECTS" xmlns="http://www.w3.org/2000/svg" viewBox="0 0 149.42 29.55"><defs><style>.cls-1{fill:#010300;}</style></defs><title>next_step</title><path class="cls-1" d="M.36,24.81A111.08,111.08,0,0,1,31.09,7.64,125.86,125.86,0,0,1,65.64.27,122.56,122.56,0,0,1,83.42.38,113,113,0,0,1,101,3.24,91.87,91.87,0,0,1,133.28,17.8a1,1,0,0,1-1,1.63A170.55,170.55,0,0,0,99.93,7.57,135.94,135.94,0,0,0,83,4.51a123.83,123.83,0,0,0-17.22-.86,109.88,109.88,0,0,0-34,5.86A96.27,96.27,0,0,0,1.55,26.28.95.95,0,0,1,.34,24.83Z"/><path class="cls-1" d="M135.25,5.53a42.76,42.76,0,0,0,2.56,5.19A49.48,49.48,0,0,0,141,15.56,49.74,49.74,0,0,0,144.69,20c1.32,1.4,2.72,2.72,4.15,4a1.72,1.72,0,0,1-.82,3l-.27.05-5.11.95c-1.7.31-3.41.58-5.11.87s-3.42.49-5.15.62a33,33,0,0,1-5.3,0,1,1,0,0,1-.9-1.07,1,1,0,0,1,.5-.78,25.32,25.32,0,0,1,5-2,38.91,38.91,0,0,1,5.17-1.17c1.74-.27,3.49-.5,5.25-.66s3.52-.25,5.29-.3l-1.09,3c-1.29-1.55-2.49-3.15-3.64-4.79s-2.26-3.29-3.31-5-2.06-3.39-3-5.12-1.86-3.5-2.76-5.27a.95.95,0,0,1,1.69-.86Z"/></svg>