<svg id="OBJECTS" xmlns="http://www.w3.org/2000/svg" viewBox="0 0 13.68 11.11"><defs><style>.cls-1{fill:#010300;}</style></defs><title>arrow_right</title><path class="cls-1" d="M.43,10c.51-.75,1-1.51,1.45-2.28a4,4,0,0,0,.61-2.35A5.14,5.14,0,0,0,1.37,3.19c-.27-.35-.56-.7-.85-1L.41,2,.35,2l0,0L.25,1.82a1.58,1.58,0,0,1-.18-.51C0,1.17,0,1,0,.9S0,.76,0,.68A.93.93,0,0,1,0,.49V.43A.63.63,0,0,1,.22.13.47.47,0,0,1,.34.06.6.6,0,0,1,.65,0a.61.61,0,0,1,.41.22l0,.05L1.16.4.88.09a48.33,48.33,0,0,0,6,2.06A46.35,46.35,0,0,1,13,4.32a1.13,1.13,0,0,1,0,2.05l-.07,0C11,7.34,9,8.25,7,9.07a40.79,40.79,0,0,1-6.23,2,.53.53,0,0,1-.42-.95A40.78,40.78,0,0,1,6.06,6.9c2-.93,4-1.78,6-2.6L12,6.38a56.59,56.59,0,0,0-5.7-2.61c-2-.83-4-1.61-5.91-2.63L.08.83l0,.08,0,0a.59.59,0,0,0,.39.21.56.56,0,0,0,.31-.06L1,1A.53.53,0,0,0,1.1.85a.52.52,0,0,0,0-.1h0v0c0-.07,0,0,0,0V.83a2.27,2.27,0,0,0,0,.28c0,.07.05.2,0,.14l0,0,0,0,.05.07.11.14c.29.36.58.74.86,1.12a6.29,6.29,0,0,1,1.24,2.7,4.93,4.93,0,0,1-.72,2.91C2.29,9,1.79,9.83,1.3,10.61A.52.52,0,0,1,.42,10Z"/></svg>