<svg id="OBJECTS" xmlns="http://www.w3.org/2000/svg" viewBox="0 0 13.68 11.11"><defs><style>.cls-1{fill:#010300;}</style></defs><title>arrow_left</title><path class="cls-1" d="M12.39,10.61c-.5-.78-1-1.56-1.43-2.41a4.93,4.93,0,0,1-.72-2.91,6.29,6.29,0,0,1,1.24-2.7c.28-.38.56-.76.86-1.12l.11-.14.05-.07,0,0,0,0c0,.06,0-.07,0-.14a2.27,2.27,0,0,0,0-.28V.71s0,0,0,0v0h0a.52.52,0,0,0,0,.1.53.53,0,0,0,.14.17l.11.07a.56.56,0,0,0,.31.06.59.59,0,0,0,.39-.21l0,0,0-.08-.29.31c-1.93,1-4,1.8-5.91,2.63A56.6,56.6,0,0,0,1.7,6.38L1.65,4.29c2,.83,4,1.67,6,2.6a40.77,40.77,0,0,1,5.68,3.25.53.53,0,0,1-.42.95,40.79,40.79,0,0,1-6.23-2c-2-.83-4-1.74-5.94-2.67l-.07,0a1.13,1.13,0,0,1,0-2.05A46.35,46.35,0,0,1,6.83,2.15a48.33,48.33,0,0,0,6-2.06L12.52.4l.06-.12,0-.05A.61.61,0,0,1,13,0a.6.6,0,0,1,.32.06.47.47,0,0,1,.11.08.63.63,0,0,1,.15.19l0,.11V.49a.93.93,0,0,1,0,.19c0,.08,0,.15,0,.22s0,.27-.06.4a1.58,1.58,0,0,1-.18.51l-.08.11,0,0L13.28,2l-.11.13c-.3.34-.58.69-.85,1a5.14,5.14,0,0,0-1.12,2.21,4,4,0,0,0,.61,2.35c.42.77.94,1.53,1.45,2.28a.52.52,0,0,1-.85.59Z"/></svg>