<svg id="Слой_1" data-name="Слой 1" xmlns="http://www.w3.org/2000/svg" viewBox="0 0 356.68 356.14"><defs><style>.cls-1{fill:none;stroke:#324c5e;stroke-linecap:round;stroke-linejoin:round;stroke-width:20px;}</style></defs><title>carrot</title><path class="cls-1" d="M174.09,169.75a115.49,115.49,0,0,0-51.94-37.66"/><path class="cls-1" d="M135.51,109.84C128.9,119.94,39.47,269.7,37,274.57c-8.12,15.92-14.87,30.15-19.72,41.67C6.08,342.83,4.67,353,36,341.45,78.58,322,120.49,300.74,161.72,277l29.15-17.27q31.58-19.24,62.62-40.6c35-24.15,30.11-46,5.28-82.3A162.38,162.38,0,0,0,246.43,121l-16.58-16.28a136.93,136.93,0,0,0-21.3-15c-30.12-16.94-45.21-18.6-64.22,7.68q-4.38,6-8.81,12.4Z"/><path class="cls-1" d="M93.58,256.3A71.31,71.31,0,0,0,61.51,233"/><path class="cls-1" d="M181.59,264.72a96.32,96.32,0,0,0-33.22-42"/><path class="cls-1" d="M346.68,73.58c-36.7.41-74,13.07-107.57,39.08"/><path class="cls-1" d="M235.28,102.63A179.37,179.37,0,0,0,272,10"/><path class="cls-1" d="M295.81,84.75c26.69,2.79,26,20.16,49.74,26.39"/><path class="cls-1" d="M291.24,83.42c31.06-17.69,26.11-40.51,25.28-59.93"/><path class="cls-1" d="M309.62,125.66a103.76,103.76,0,0,0-57.16-7.45"/><path class="cls-1" d="M250.69,78.39a119,119,0,0,0-24-61.59"/></svg>