<svg id="Слой_1" data-name="Слой 1" xmlns="http://www.w3.org/2000/svg" viewBox="0 0 361.6 347.94"><defs><style>.cls-1{fill:none;stroke:#324c5e;stroke-linecap:round;stroke-linejoin:round;stroke-width:20px;}</style></defs><title>chili_pepper</title><path class="cls-1" d="M245.65,119.7c14.1-39.76,50-47.37,71.72-40.57,35.08,11,55.81,72-1.69,155.26a241.5,241.5,0,0,1-48.24,52c-49.11,39.11-106.18,51.39-154.08,51.51-62.14.16-108.88-20.15-102.83-28.8.18-.26,75.36,6.81,136.44-28.43,83.53-48.18,76.14-97.44,98.69-161Zm68-74a5,5,0,0,1-1.5,2.64c11.17,2.92,23.34,9.91,27.3,19.4,4.23,10.14,4.66,26.44-5.9,21.1M283.67,80C276.12,83.16,272,73,279.82,61.8c4.25-6.09,16.07-16,32.33-13.51C314.09,22.54,330,14.55,338.34,10M323.68,128.53c3.4,26.8-7.61,65.55-44.39,109.11a232.12,232.12,0,0,1-48.52,43.78A202.76,202.76,0,0,1,173,308.06"/></svg>