<svg id="Слой_1" data-name="Слой 1" xmlns="http://www.w3.org/2000/svg" viewBox="0 0 263.72 363.76"><defs><style>.cls-1{fill:none;stroke:#324c5e;stroke-linecap:round;stroke-linejoin:round;stroke-width:14px;}</style></defs><title>drink2</title><path class="cls-1" d="M226.08,180.4,197.35,345.82c-1.34,5.85-5,10.94-10.94,10.94H77.31c-5.91,0-9.6-5.09-10.94-10.94L37.64,180.4M256.72,173l-5.36-27.32h-239L7,173m0-.07H256.72m-33.59-27.25c0-41.82-40.86-75.73-91.27-75.73s-91.27,33.9-91.27,75.73M212.13,7,130,38.89V145.66M108.09,99.33a76.77,76.77,0,0,0-22,10.23,51.46,51.46,0,0,0-14.86,15.17"/></svg>