<svg id="Layer_1" data-name="Layer 1" xmlns="http://www.w3.org/2000/svg" viewBox="0 0 112.14 111.98"><defs><style>.cls-1{fill-rule:evenodd;}.cls-2{fill:none;stroke:#fff;stroke-linecap:round;stroke-linejoin:round;stroke-width:2px;}</style></defs><title>french_fries</title><path class="cls-1" d="M60.42,112a16.07,16.07,0,0,0,12.22-5.24c.8-.85,3.76-.48,3.76-.48a4.07,4.07,0,0,1,0,1.48c-.12.72-1.36,4.18.45,4.24s.94,0,.94,0,.9.17.94-1.91c0-1.41-1-1.68-.94-2.86s.29-.92.94-1a12.3,12.3,0,0,0,9.4-5.24,11.08,11.08,0,0,1,3.29,0c1,.2,5.17-4.33,5.64-5.24s1.25,1.19,1.88,1a3.26,3.26,0,0,0,1.41-1.43,7.5,7.5,0,0,0,0-4.76c0-.11,4-3.3,3.76-8.1,0-.56,2.58,1,4.7-.48a3.36,3.36,0,0,0,1.41-2.86,9.11,9.11,0,0,0-2.35-4.29c-.3-.25,0-2.86,0-2.86a3.1,3.1,0,0,1-.47-1.91c.08-1.15.74-2.38.94-3.81s.39-3.93.47-4.29,3.21-2.42,3.29-3.81-1-4.15-3.29-4.76c-.08,0-1.33-6.39-1.41-7.15s-1-1.23-.47-2.86,1-1.39.94-1.91a9.64,9.64,0,0,0-2.35-5.24s1.94-2,1.88-2.86C107.3,31.72,104.17,31,99.9,31c-1.14,0-2.47-6.63-1.41-8.1.21-.29-2.79-1.28-5.64-3.33-3.41-2.45-6.84-6.11-7.52-7.62-1.25-2.78-9.83-7.38-13.16-8.1s-4.23-.48-4.23-.48.7-1.31.94-1.91S68.73,0,68.41,0s-1.76.32-1.88,1.43a8.36,8.36,0,0,0,0,1.91,19.73,19.73,0,0,1-6.58-1C56.82,1.27,53.61,0,52,0S43.63,2.27,43,2.86s-1.76-.91-1.88-1-1.88.79-1.88,1.91c0,.4-5.13-1.43-6.11,2.38,0,.08-.47,0-.47,0s-4.5-3.61-5.64-3.33.7,4.45.94,4.76-2.19-.28-2.82,1.43c-.06.16-1.92.52-2.35,0-.26-.31-6.46-8.58-7-8.58S19.62,8.3,19.54,11a9.85,9.85,0,0,1-1.41,4.76c-.08.08-2-1-2.82,0a30.93,30.93,0,0,0-3.76,6.19c-.05.15-1.41,0-1.41,0s-3.05-2.58-4.7-2.38a2.19,2.19,0,0,0-1.88,1.91c0,.08,4.27-1.47,7,3.81,0,0,0,1,0,1S7,31,3.09,31C1,31,6.31,33.63,6.85,33.83S6,35.42,5.91,36.21s-3-.37-3.76.48a1.77,1.77,0,0,0,.47,2.38c.9.6,2.82,0,2.82,0s1,4.65-5.17,8.1C-.79,47.77,4,49.07,4,49.07s.39,6.55,1.41,7.62S2.1,60.39,2.62,61.46c.12.24,1.84.2,1.88,1.43.06,2-.09,5.41,1.41,6.19L4.5,70.51s1.21,1.91.94,3.33a6.53,6.53,0,0,1-1.88,2.86,24,24,0,0,1,3.29-1,8.17,8.17,0,0,1,2.35,0S9.74,81.54,13,84.8c1.17,1.19,4.66,8.42,6.58,10s7.83,7.7,9.87,8.58,8.5,4.92,8.93,5.72,10.69.44,11.75.48c.52,0,2.28,1.32,4.7,1.91A24.5,24.5,0,0,0,60.42,112Z"/><path class="cls-2" d="M59.12,57.18l.23-26.6H53.2l.24,26.62m15.2-14.84,1.56-6.83-6.07-.85L60.37,57.11m18-5,5.16-10.43-4.71-3.05-8.2,16.56M65.35,56.6l.5-13.81,5.67.61-.53,12M53.16,57.18,46.83,33.76l-5.51,1.72,5.84,21.17M33,51.32l-4.4-9.21,5.21-2.52,7.83,16m1.59-20.85-.06-4.8H37.05L41,55.4M59.35,40.62l3-12.65,6.1,1-1.6,6M31.6,50.33h1.05c1.93,3.92,11.68,6.9,23.42,6.9s21.49-3,23.42-6.9h1.05L72.57,84a57.21,57.21,0,0,0-33,0l-8-33.69Z"/></svg>