<svg id="Слой_1" data-name="Слой 1" xmlns="http://www.w3.org/2000/svg" viewBox="0 0 262.91 261.98"><defs><style>.cls-1{fill:none;stroke:#324c5e;stroke-linecap:round;stroke-linejoin:round;stroke-width:9px;}</style></defs><title>pasta2</title><path class="cls-1" d="M101.59,72.61C92.76,64.68,93.83,52,99.11,44.8s6.74-18.28-1.79-27.08M127.25,4.5c11.74,10.28,9.81,23.15,2.47,31.64s-8.74,23.24,3.41,32.5m28.64-50.92c8.53,8.79,7.13,19.8,1.79,27.08S157.21,64.68,166,72.61M4.5,225.3H258.41M116.26,93.19c.24,32.9,24.34,58.73,47.32,45.4,15.67-16-4.71-46-47.32-45.4Zm48.89,44.66c19.14,11.46,39.69-10,40.27-37.59-15.77-.44-30.15,3.77-37.76,10.22M18.72,226.73C20,234.41,49.79,257.48,72,257.48h119c20.73,0,52-23.06,53.24-30.74M83.9,207.8c-11.59-18.47-36.19-13.13-45.58,0m72.41,0c-24.06-51.94-81.7-36.21-100-.65m184.57.65c-9.68-14.59-29.38-10.47-37.42,0m62.28,0c-9.76-21-25-31.29-40.69-32-17.49-.75-37.62,10.43-47.07,32m112.36,0c-26.89-72.42-95.78-59.26-124.19-23.05m4.1-25.73c-7.43-9.75-27.81-11.94-33.62,5.08m21.6-30.18c-16.42-1.86-33.45,3.57-41.46,25.22"/></svg>