<svg id="Layer_1" data-name="Layer 1" xmlns="http://www.w3.org/2000/svg" viewBox="0 0 112.14 111.98"><defs><style>.cls-1{fill-rule:evenodd;}.cls-2{fill:none;stroke:#fff;stroke-linecap:round;stroke-linejoin:round;stroke-width:2px;}</style></defs><title>pizza</title><path class="cls-1" d="M60.42,112a16.07,16.07,0,0,0,12.22-5.24c.8-.85,3.76-.48,3.76-.48a4.07,4.07,0,0,1,0,1.48c-.12.72-1.36,4.18.45,4.24s.94,0,.94,0,.9.17.94-1.91c0-1.41-1-1.68-.94-2.86s.29-.92.94-1a12.3,12.3,0,0,0,9.4-5.24,11.08,11.08,0,0,1,3.29,0c1,.2,5.17-4.33,5.64-5.24s1.25,1.19,1.88,1a3.26,3.26,0,0,0,1.41-1.43,7.5,7.5,0,0,0,0-4.76c0-.11,4-3.3,3.76-8.1,0-.56,2.58,1,4.7-.48a3.36,3.36,0,0,0,1.41-2.86,9.11,9.11,0,0,0-2.35-4.29c-.3-.25,0-2.86,0-2.86a3.1,3.1,0,0,1-.47-1.91c.08-1.15.74-2.38.94-3.81s.39-3.93.47-4.29,3.21-2.42,3.29-3.81-1-4.15-3.29-4.76c-.08,0-1.33-6.39-1.41-7.15s-1-1.23-.47-2.86,1-1.39.94-1.91a9.64,9.64,0,0,0-2.35-5.24s1.94-2,1.88-2.86C107.3,31.72,104.17,31,99.9,31c-1.14,0-2.47-6.63-1.41-8.1.21-.29-2.79-1.28-5.64-3.33-3.41-2.45-6.84-6.11-7.52-7.62-1.25-2.78-9.83-7.38-13.16-8.1s-4.23-.48-4.23-.48.7-1.31.94-1.91S68.73,0,68.41,0s-1.76.32-1.88,1.43a8.36,8.36,0,0,0,0,1.91,19.73,19.73,0,0,1-6.58-1C56.82,1.27,53.61,0,52,0S43.63,2.27,43,2.86s-1.76-.91-1.88-1-1.88.79-1.88,1.91c0,.4-5.13-1.43-6.11,2.38,0,.08-.47,0-.47,0s-4.5-3.61-5.64-3.33.7,4.45.94,4.76-2.19-.28-2.82,1.43c-.06.16-1.92.52-2.35,0-.26-.31-6.46-8.58-7-8.58S19.62,8.3,19.54,11a9.85,9.85,0,0,1-1.41,4.76c-.08.08-2-1-2.82,0a30.93,30.93,0,0,0-3.76,6.19c-.05.15-1.41,0-1.41,0s-3.05-2.58-4.7-2.38a2.19,2.19,0,0,0-1.88,1.91c0,.08,4.27-1.47,7,3.81,0,0,0,1,0,1S7,31,3.09,31C1,31,6.31,33.63,6.85,33.83S6,35.42,5.91,36.21s-3-.37-3.76.48a1.77,1.77,0,0,0,.47,2.38c.9.6,2.82,0,2.82,0s1,4.65-5.17,8.1C-.79,47.77,4,49.07,4,49.07s.39,6.55,1.41,7.62S2.1,60.39,2.62,61.46c.12.24,1.84.2,1.88,1.43.06,2-.09,5.41,1.41,6.19L4.5,70.51s1.21,1.91.94,3.33a6.53,6.53,0,0,1-1.88,2.86,24,24,0,0,1,3.29-1,8.17,8.17,0,0,1,2.35,0S9.74,81.54,13,84.8c1.17,1.19,4.66,8.42,6.58,10s7.83,7.7,9.87,8.58,8.5,4.92,8.93,5.72,10.69.44,11.75.48c.52,0,2.28,1.32,4.7,1.91A24.5,24.5,0,0,0,60.42,112Z"/><path class="cls-2" d="M82.48,50.66A27.62,27.62,0,1,1,62.94,29.8L54.68,56.38l27.81-5.73Zm-4.85,1A22.65,22.65,0,0,1,46.35,77.11,23,23,0,0,1,34.74,47.25,22,22,0,0,1,61.37,34.5M55.47,54,68.72,28l.22.21A29.67,29.67,0,0,1,84.3,44.85L56.79,55.95m9.76-23,.14.06A24.34,24.34,0,0,1,79.28,46.68m-34.19-4.2a3.61,3.61,0,0,0-.37,1.41c-.06.95.24,2.46,1.49,2.43A5.91,5.91,0,0,0,48,45.59c.38-.16.63-.11.8.28a10.74,10.74,0,0,1,.3,1.23,1.31,1.31,0,0,0,.68,1,2.49,2.49,0,0,0,1.86-.36,2.81,2.81,0,0,0,1.41-1.35,1.51,1.51,0,0,0-.22-1.2,10.65,10.65,0,0,0-.76-1c-.11-.15-.37-.47-.18-.64.53-.47,1.24-.77,1.66-1.19.85-.81.1-2-.7-2.53a3.75,3.75,0,0,0-1.54-.57,6.51,6.51,0,0,0-6.26,3.27Zm23.43-3a2.93,2.93,0,1,1-2.93,2.93,2.93,2.93,0,0,1,2.93-2.93Zm3.17,19.66a3.61,3.61,0,0,0-1-1c-.78-.54-2.23-1.05-2.85,0a5.87,5.87,0,0,0-.31,1.94c-.05.4-.23.6-.65.54a10.23,10.23,0,0,1-1.21-.37,1.3,1.3,0,0,0-1.18.08,2.56,2.56,0,0,0-.65,1.78,2.82,2.82,0,0,0,.44,1.9,1.51,1.51,0,0,0,1.13.43,10.64,10.64,0,0,0,1.27-.12c.19,0,.59-.07.64.18.13.7,0,1.46.16,2,.26,1.14,1.67,1.11,2.53.7a3.75,3.75,0,0,0,1.28-1,6.51,6.51,0,0,0,.41-7.05ZM59.21,68.23a2.93,2.93,0,1,1-2.93,2.93,2.93,2.93,0,0,1,2.93-2.93Zm-16.3-5.91a3.61,3.61,0,0,0-1,1.09c-.48.82-.89,2.3.23,2.84a5.93,5.93,0,0,0,2,.17c.4,0,.61.19.59.61a9.94,9.94,0,0,1-.28,1.23,1.3,1.3,0,0,0,.16,1.17,2.52,2.52,0,0,0,1.82.53,2.84,2.84,0,0,0,1.87-.57,1.51,1.51,0,0,0,.34-1.17A10.64,10.64,0,0,0,48.43,67c0-.18-.12-.59.13-.65.68-.19,1.45-.13,2-.31,1.12-.34,1-1.75.52-2.57A3.75,3.75,0,0,0,50,62.23a6.51,6.51,0,0,0-7.06.09ZM40.34,51.57a2.93,2.93,0,1,1-2.93,2.93,2.93,2.93,0,0,1,2.93-2.93Zm7,1.08a3.37,3.37,0,0,1,3,3m9.36,3.94a3.37,3.37,0,0,0-3,3M66.4,49.39A3.39,3.39,0,0,0,62.34,48M48.14,76a3.38,3.38,0,0,1,4.17-1"/></svg>