<svg id="Слой_1" data-name="Слой 1" xmlns="http://www.w3.org/2000/svg" viewBox="0 0 348.42 345.86"><defs><style>.cls-1{fill:none;stroke:#324c5e;stroke-linecap:round;stroke-linejoin:round;stroke-width:11px;}</style></defs><title>pizza2</title><path class="cls-1" d="M332.06,141.09A165,165,0,1,1,215.26,16.38L165.87,175.31l166.18-34.22ZM205.86,44.52c-63.92-18-130.42,10.73-159.23,76.23s1,148.37,69.43,178.49a135.43,135.43,0,0,0,187-152.11m-124.57,25.6L342.92,106.4A177.39,177.39,0,0,0,251.14,6.73L249.81,5.5,170.59,161.22M312.9,117.33a145.54,145.54,0,0,0-75.25-81.66l-.83-.38M108.51,92.22a21.6,21.6,0,0,0-2.18,8.4c-.35,5.66,1.45,14.68,8.89,14.52,3.4-.07,7.21-2.77,10.89-4.35,2.22-1,3.78-.63,4.77,1.67.84,2,1.15,4.78,1.82,7.33s1.71,4.85,4,5.82c2.66,1.11,7.13,0,11.14-2.12s7.57-5.22,8.41-8.1c.73-2.53,0-4.93-1.32-7.16a63.67,63.67,0,0,0-4.51-6.14c-.65-.87-2.2-2.82-1.06-3.82,3.16-2.82,7.38-4.63,9.94-7.09,5.06-4.87.58-12-4.18-15.12a22.45,22.45,0,0,0-9.21-3.4c-7.09-1-14.82.72-21.6,4.26s-12.58,8.91-15.83,15.29ZM248.59,74.56a17.5,17.5,0,1,0,17.5,17.5,17.5,17.5,0,0,0-17.5-17.5Zm19,117.48a21.61,21.61,0,0,0-6.09-6.18c-4.68-3.2-13.34-6.29-17,.17-1.68,3-1.33,7.61-1.85,11.58-.32,2.4-1.4,3.57-3.88,3.24-2.13-.29-4.69-1.47-7.22-2.2s-5-1-7.06.47c-2.31,1.71-3.65,6.12-3.9,10.65s.59,9.18,2.63,11.37c1.79,1.93,4.25,2.51,6.82,2.54a63.61,63.61,0,0,0,7.58-.72c1.08-.12,3.54-.44,3.82,1,.79,4.16.18,8.71,1,12.17,1.58,6.84,10,6.66,15.12,4.17a22.45,22.45,0,0,0,7.65-6.16c4.48-5.58,7-13.09,7.43-20.72s-1.19-15.37-5-21.43ZM193,246.16a17.5,17.5,0,1,0,17.5,17.5,17.5,17.5,0,0,0-17.5-17.5ZM95.53,210.81a21.6,21.6,0,0,0-5.74,6.51c-2.87,4.89-5.34,13.75,1.36,17,3.06,1.47,7.69.79,11.68,1,2.42.15,3.66,1.14,3.5,3.64-.14,2.14-1.14,4.78-1.69,7.36s-.67,5.1,1,7c1.87,2.19,6.37,3.21,10.9,3.14s9.12-1.23,11.16-3.42c1.8-1.92,2.2-4.41,2.06-7a63.59,63.59,0,0,0-1.25-7.51c-.19-1.07-.69-3.5.78-3.88,4.09-1.08,8.68-.79,12.07-1.83,6.72-2.05,5.95-10.45,3.11-15.38a22.45,22.45,0,0,0-6.68-7.2c-5.88-4.08-13.55-6.06-21.19-6s-15.25,2.26-21,6.48ZM80.16,146.58a17.5,17.5,0,1,0,17.5,17.5,17.5,17.5,0,0,0-17.5-17.5Zm60,24.62c-1.1-7.22-6.07-17.08-18.14-18.14m74,41.66c-12.06,1.06-17,10.92-18.14,18.14m58-79.35c-6.32-10.33-17.36-10.4-24.32-8.17m-59.9,161.42c-6.72-2.84-17.73-3.78-25,5.94"/></svg>