<svg id="Слой_1" data-name="Слой 1" xmlns="http://www.w3.org/2000/svg" viewBox="0 0 341.72 339.19"><defs><style>.cls-1{fill:none;stroke:#324c5e;stroke-linecap:round;stroke-linejoin:round;stroke-width:14px;}</style></defs><title>rewards_program</title><path class="cls-1" d="M170.86,176.58l23.5,55.68L252.67,236,207,275.57l14.44,56.61L169.68,301,120.3,332.19,134,273.33,89,236l60.21-5.14,21.6-54.29ZM140.95,34.92c0,19.36,13.39,32.85,29.91,32.85s29.91-13.49,29.91-32.85c0-37.8-59.82-36.65-59.82,0ZM109.37,155.23v-37A30.33,30.33,0,0,1,139.61,88H202.1a30.37,30.37,0,0,1,30.24,30.24v37m-92.47-1.49V119.06m62,0v34.68M102.89,281.05,75.21,264.34,33.44,290.76,45,241,7,209.4,57.94,205l18.27-45.93,19.88,47.1,30.39,2m112.35,72.87,27.68-16.71,41.78,26.42L296.68,241l38-31.57L283.78,205l-18.27-45.93-19.88,47.1-30.39,2"/></svg>